<?xml version="1.0" encoding="UTF-8" standalone="no"?>
<!-- Created with Inkscape (http://www.inkscape.org/) -->

<svg
   xmlns:dc="http://purl.org/dc/elements/1.1/"
   xmlns:cc="http://creativecommons.org/ns#"
   xmlns:rdf="http://www.w3.org/1999/02/22-rdf-syntax-ns#"
   xmlns:svg="http://www.w3.org/2000/svg"
   xmlns="http://www.w3.org/2000/svg"
   xmlns:xlink="http://www.w3.org/1999/xlink"
   xmlns:sodipodi="http://sodipodi.sourceforge.net/DTD/sodipodi-0.dtd"
   xmlns:inkscape="http://www.inkscape.org/namespaces/inkscape"
   width="210mm"
   height="297mm"
   viewBox="0 0 210 297"
   version="1.1"
   id="svg1590"
   inkscape:version="0.92.4 5da689c313, 2019-01-14"
   sodipodi:docname="Logo2.svg">
  <defs
     id="defs1584">
    <linearGradient
       inkscape:collect="always"
       xlink:href="#linearGradient1229"
       id="linearGradient1510"
       gradientUnits="userSpaceOnUse"
       x1="587.95007"
       y1="469.02133"
       x2="634.15033"
       y2="469.02133" />
    <linearGradient
       inkscape:collect="always"
       id="linearGradient1229">
      <stop
         style="stop-color:#3c44bd;stop-opacity:1"
         offset="0"
         id="stop1225" />
      <stop
         style="stop-color:#8a2c89;stop-opacity:1"
         offset="1"
         id="stop1227" />
    </linearGradient>
    <inkscape:path-effect
       effect="skeletal"
       id="path-effect1492"
       is_visible="true"
       pattern="M 0,5 C 0,2.24 2.24,0 5,0 7.76,0 10,2.24 10,5 10,7.76 7.76,10 5,10 2.24,10 0,7.76 0,5 Z"
       copytype="single_stretched"
       prop_scale="0.26458333"
       scale_y_rel="false"
       spacing="0"
       normal_offset="0"
       tang_offset="0"
       prop_units="false"
       vertical_pattern="false"
       fuse_tolerance="0" />
    <linearGradient
       inkscape:collect="always"
       xlink:href="#linearGradient1229"
       id="linearGradient1508"
       gradientUnits="userSpaceOnUse"
       x1="597.50665"
       y1="476.02365"
       x2="634.7677"
       y2="476.02365" />
    <inkscape:path-effect
       fuse_tolerance="0"
       vertical_pattern="false"
       prop_units="false"
       tang_offset="0"
       normal_offset="0"
       spacing="0"
       scale_y_rel="false"
       prop_scale="0.26458333"
       copytype="single_stretched"
       pattern="M 0,5 C 0,2.24 2.24,0 5,0 7.76,0 10,2.24 10,5 10,7.76 7.76,10 5,10 2.24,10 0,7.76 0,5 Z"
       is_visible="true"
       id="path-effect1488"
       effect="skeletal" />
    <linearGradient
       inkscape:collect="always"
       xlink:href="#linearGradient1229"
       id="linearGradient1506"
       gradientUnits="userSpaceOnUse"
       x1="284.53525"
       y1="327.8107"
       x2="284.53525"
       y2="397.03348" />
    <inkscape:path-effect
       effect="skeletal"
       id="path-effect1484"
       is_visible="true"
       pattern="M 0,5 C 0,2.24 2.24,0 5,0 7.76,0 10,2.24 10,5 10,7.76 7.76,10 5,10 2.24,10 0,7.76 0,5 Z"
       copytype="single_stretched"
       prop_scale="0.15670776"
       scale_y_rel="false"
       spacing="0"
       normal_offset="0"
       tang_offset="0"
       prop_units="false"
       vertical_pattern="false"
       fuse_tolerance="0" />
  </defs>
  <sodipodi:namedview
     id="base"
     pagecolor="#ffffff"
     bordercolor="#666666"
     borderopacity="1.0"
     inkscape:pageopacity="0.0"
     inkscape:pageshadow="2"
     inkscape:zoom="0.7"
     inkscape:cx="135.60685"
     inkscape:cy="817.89873"
     inkscape:document-units="mm"
     inkscape:current-layer="layer1"
     showgrid="false"
     inkscape:window-width="1920"
     inkscape:window-height="976"
     inkscape:window-x="0"
     inkscape:window-y="27"
     inkscape:window-maximized="1" />
  <metadata
     id="metadata1587">
    <rdf:RDF>
      <cc:Work
         rdf:about="">
        <dc:format>image/svg+xml</dc:format>
        <dc:type
           rdf:resource="http://purl.org/dc/dcmitype/StillImage" />
        <dc:title></dc:title>
      </cc:Work>
    </rdf:RDF>
  </metadata>
  <g
     inkscape:label="Layer 1"
     inkscape:groupmode="layer"
     id="layer1">
    <path
       sodipodi:nodetypes="cccccccccccccccccccccccccccccccccccccccc"
       d="m 247.38179,324.85253 c 0.0853,-0.19712 3.77678,1.34295 9.98419,2.95398 6.61299,1.71629 14.57825,3.06374 24.84743,3.55497 0.13451,0.006 0.26919,0.0126 0.40406,0.0187 19.82662,0.89003 35.88234,-2.1168 35.95695,-1.69077 0.0501,0.286 -15.82345,4.16094 -36.02714,3.25623 -0.1363,-0.006 -0.27243,-0.0124 -0.40837,-0.0189 -10.30728,-0.48819 -18.52717,-2.05167 -25.07281,-4.06171 -6.22575,-1.91181 -9.74985,-3.86103 -9.68431,-4.01245 z m -0.4009,2.40542 c 0.10479,-0.18917 3.74011,1.79166 9.9834,3.96268 6.59513,2.29337 14.81534,4.27137 25.32361,5.17306 1.35916,0.11663 2.70143,0.21051 4.02229,0.28475 0,0 1e-5,0 1e-5,0 7.16259,0.39595 13.168,0.1197 18.52435,-0.66747 8.42947,-1.25915 13.19916,-4.1233 13.33897,-3.91619 0.30013,0.44461 -4.44216,3.57908 -13.13953,5.13208 -5.40135,0.97702 -11.571,1.37715 -18.80655,1.00708 0,0 0,0 0,0 -1.33714,-0.0672 -2.69642,-0.15765 -4.07331,-0.27483 -10.5947,-0.90164 -19.04091,-3.11243 -25.57521,-5.70266 -6.25298,-2.47871 -9.67359,-4.86211 -9.59803,-4.9985 z m 0.0945,4.06325 c 0.10479,-0.18917 3.50963,1.62803 9.30213,3.7657 6.13216,2.26303 13.69329,4.35931 23.44672,5.75233 1.81519,0.25925 3.60028,0.47907 5.34289,0.66635 0,0 0,0 0,0 6.67916,0.7127 12.18111,0.84474 17.10772,0.58201 0,0 0,0 0,0 7.16808,-0.40569 11.35073,-2.07555 11.45746,-1.86632 0.27551,0.54007 -4.04899,2.3821 -11.3712,3.04193 0,0 0,0 0,0 -4.95457,0.46162 -10.62642,0.45355 -17.35294,-0.21799 0,0 0,0 0,0 -1.76258,-0.17464 -3.56864,-0.38897 -5.40574,-0.65057 -9.81008,-1.39693 -17.58799,-3.72987 -23.63141,-6.27969 -5.77918,-2.43832 -8.97685,-4.64714 -8.89563,-4.79375 z m 3.74177,4.40995 c 0.10479,-0.18917 3.02367,1.30971 7.90967,3.26095 5.10468,2.03856 11.56079,4.19584 19.67318,5.85459 2.15359,0.44035 4.25538,0.81098 6.28968,1.12404 0,0 0,0 0,0 5.35642,0.82237 9.84515,1.18425 13.73485,1.31217 0,0 0,0 0,0 5.49631,0.17317 8.84433,-0.3283 8.8933,-0.11262 0.0808,0.35579 -3.31517,1.14166 -8.90109,1.23969 0,0 -1e-5,0 -1e-5,0 -3.91196,0.0732 -8.54582,-0.16205 -13.9501,-0.92649 0,0 0,0 0,0 -2.06387,-0.29121 -4.19733,-0.65336 -6.38086,-1.09963 -8.17672,-1.67114 -14.79618,-4.06041 -19.79698,-6.37535 -4.84274,-2.24177 -7.55926,-4.11917 -7.47164,-4.27735 z m 5.27857,5.0113 c 0.20958,-0.37834 9.55573,5.02229 22.03164,8.48468 2.15552,0.59821 4.23507,1.08289 6.2518,1.46905 0,0 0,0 0,0 5.08047,0.96751 8.89051,1.20819 12.13658,1.11612 3.01923,-0.0856 4.8157,-0.40669 4.85534,-0.23208 0.0329,0.14505 -1.69353,0.82207 -4.78678,1.17937 -3.25255,0.37571 -7.33127,0.31538 -12.47533,-0.58032 0,0 0,0 -10e-6,0 -2.06711,-0.35788 -4.20143,-0.83488 -6.39985,-1.44484 -12.90035,-3.57924 -21.70252,-9.83108 -21.61339,-9.99198 z m 1.33635,3.94223 c 0.20958,-0.37834 8.10814,4.14523 18.44199,7.72556 2.45571,0.85082 4.76529,1.52509 6.98448,2.05824 0,0 10e-6,0 10e-6,0 7.09922,1.7091 12.39225,1.12657 12.43215,1.45487 0.0348,0.28621 -5.21535,1.54161 -12.75142,-0.0328 0,0 0,0 0,0 -2.28405,-0.47797 -4.67418,-1.13648 -7.1769,-2.00248 -10.65943,-3.6884 -18.01283,-9.0544 -17.93031,-9.20337 z m -2.73951,4.81085 c 0.20271,-0.38207 7.67997,3.55006 17.48321,6.44214 1.75443,0.51757 3.4403,0.95667 5.06956,1.33024 0,0 0,0 0,0 4.0317,0.9179 6.77057,1.3304 9.38722,1.5156 2.3412,0.16571 3.75685,0.0858 3.78049,0.28025 0.0191,0.15715 -1.36674,0.56635 -3.79409,0.66404 -2.5923,0.10432 -5.6783,-0.16535 -9.69177,-0.99065 0,0 0,0 0,0 -1.67176,-0.34125 -3.40555,-0.77022 -5.19437,-1.29784 -10.10626,-2.98089 -17.18588,-7.6693 -17.04025,-7.94378 z m -4.6104,4.74404 c 0.20034,-0.38332 7.86059,3.5504 18.01494,5.65071 5.21906,1.0795 9.6225,1.4019 13.15745,1.48016 3.39815,0.0752 5.5214,-0.0726 5.55036,0.16557 0.0231,0.18999 -2.06025,0.73057 -5.5288,0.94001 -3.55668,0.21476 -8.18558,0.0469 -13.49652,-1.0484 -10.58505,-2.18309 -17.86539,-6.86669 -17.69743,-7.18805 z m -3.02381,5.00818 c 0.11015,-0.21442 2.04145,0.65988 5.25334,1.73835 3.34064,1.12171 7.58994,2.28897 12.85037,2.97488 1.34305,0.17512 2.65234,0.30569 3.92159,0.39977 0,0 0,0 0,0 3.45242,0.2538 6.31027,0.22248 8.81611,0.0425 3.64859,-0.27372 5.79164,-0.94795 5.88133,-0.74117 0.13014,0.30003 -2.00929,1.3255 -5.75487,1.87745 -2.52646,0.37912 -5.52614,0.54752 -9.04154,0.35007 0,0 0,0 0,0 -1.30211,-0.0724 -2.64726,-0.1937 -4.02533,-0.37319 -5.36311,-0.69854 -9.7753,-2.08835 -13.04366,-3.49662 -3.18614,-1.37286 -4.94407,-2.60324 -4.85734,-2.77208 z m -1.27568,8.45722 c 0.07,-0.22432 1.8344,0.20149 4.69471,0.5773 3.11838,0.40971 6.59075,0.63543 11.29878,0.53887 1.12986,-0.0232 2.23754,-0.0626 3.30007,-0.10915 3.20896,-0.14484 5.79821,-0.37825 8.05032,-0.62029 1.26368,-0.13594 1.99055,-0.22601 2.86421,-0.33518 1.14034,-0.14523 1.79979,-0.22607 1.83721,-0.12565 0.0519,0.13925 -0.54474,0.46942 -1.68102,0.83153 -0.75759,0.24207 -1.6857,0.48198 -2.84862,0.72239 -2.20143,0.45528 -4.93018,0.84956 -8.13744,1.05888 -1.07681,0.0717 -2.1997,0.12509 -3.35199,0.14946 -4.69594,0.0993 -8.48493,-0.31839 -11.52911,-1.02389 -2.89702,-0.6714 -4.55559,-1.47678 -4.49712,-1.66427 z m 0.75596,5.4334 c 0.0794,-0.29774 3.30112,0.28559 8.0696,0.15859 1.959,-0.055 4.04112,-0.18922 6.35892,-0.4299 0.82864,-0.0861 1.63991,-0.18074 2.42934,-0.28031 3.07016,-0.38846 5.3835,-0.7854 7.53411,-1.22412 1.15578,-0.23632 1.86063,-0.39817 2.63568,-0.59848 0.98464,-0.26844 1.58001,-0.43752 1.61586,-0.39298 0.11,0.13665 -0.35445,0.59063 -1.36198,1.0747 -0.68926,0.33802 -1.52,0.66011 -2.60763,1.00281 -2.06478,0.65136 -4.5702,1.2289 -7.60831,1.66872 -0.80201,0.11641 -1.62875,0.2208 -2.47522,0.30866 -2.35215,0.24413 -4.52506,0.32602 -6.51892,0.27666 -4.94842,-0.11615 -8.17217,-1.18674 -8.07145,-1.56435 z m 1.65364,3.87426 c 0.10544,-0.26318 2.36811,0.23225 5.99734,0.0598 1.94702,-0.10707 4.02824,-0.31762 6.44144,-0.68544 0.43549,-0.0664 0.86542,-0.13536 1.28878,-0.20606 2.8752,-0.48342 4.92463,-0.93524 6.91961,-1.53627 1.03068,-0.31334 1.66887,-0.53894 2.31694,-0.84636 0.86798,-0.46579 1.15483,-0.82363 1.28542,-0.78134 0.14701,0.0476 0.075,0.73771 -0.88459,1.42367 -0.59232,0.46157 -1.3256,0.86835 -2.32119,1.29182 -1.9222,0.82231 -4.19887,1.47185 -7.04903,1.98406 -0.43245,0.0782 -0.87266,0.15192 -1.31963,0.22011 -2.45001,0.37379 -4.66849,0.51449 -6.65516,0.47478 -3.79046,-0.051 -6.19934,-0.95101 -6.01993,-1.39881 z m 4.9137,5.62239 c 0.005,-0.22805 1.06914,-0.34965 2.71379,-0.67341 1.79371,-0.3531 3.74973,-0.84759 6.32093,-1.76788 0.45246,-0.16194 0.89535,-0.3268 1.32595,-0.49151 0,0 0,0 0,0 1.78035,-0.68925 3.06833,-1.28383 4.26641,-1.97983 0,0 0,0 0,0 1.64934,-1.03562 2.266,-1.89525 2.48814,-1.82331 0.33272,0.10775 -0.0609,1.47874 -1.82478,2.79152 0,0 0,0 0,0 -1.13569,0.89909 -2.55774,1.70897 -4.35443,2.45001 0,0 0,0 0,0 -0.44127,0.18403 -0.89865,0.36269 -1.37015,0.53248 -2.60546,0.93824 -4.89302,1.33419 -6.7311,1.3874 -1.77286,0.0513 -2.83959,-0.22292 -2.83476,-0.42547 z m 4.06324,2.78757 c 0.0285,-0.22723 0.89054,-0.25017 2.14359,-0.57324 1.42413,-0.36718 2.80183,-0.95782 4.79789,-2.02416 0.13402,-0.0716 0.2671,-0.14326 0.39846,-0.21435 0,0 0,0 0,0 1.33067,-0.74248 2.39527,-1.44587 3.33448,-2.13433 1.43634,-1.07273 2.32884,-1.91749 2.47205,-1.83712 0.26625,0.14942 -0.20959,1.37811 -1.6504,2.7925 -0.86824,0.86383 -1.99469,1.74393 -3.38616,2.5406 0,0 0,0 0,0 -0.13493,0.0795 -0.27255,0.15849 -0.41272,0.23662 -2.01506,1.12316 -3.84109,1.65999 -5.39905,1.72599 -1.48177,0.0628 -2.32273,-0.31636 -2.29814,-0.51251 z m 3.54353,2.07887 c 0.023,-0.2281 0.78829,-0.29664 1.9265,-0.5452 1.17359,-0.25629 2.63458,-0.68957 4.17185,-1.58901 0.0767,-0.0449 0.15257,-0.0903 0.22757,-0.13631 2.89835,-1.76189 4.84389,-3.98018 5.16691,-3.70948 0.1859,0.1558 -1.02602,2.94556 -4.34146,5.03991 -0.0859,0.0539 -0.17312,0.1067 -0.26152,0.15845 -3.74064,2.18924 -6.92345,1.11508 -6.88985,0.78164 z m 4.06324,2.36236 c 0.0981,-0.26031 1.26852,-0.0833 2.96183,-0.5994 0.96372,-0.30965 1.96947,-0.77165 3.07305,-1.45543 0.0224,-0.0139 0.0448,-0.0279 0.0672,-0.0418 1.1181,-0.70797 1.97198,-1.40959 2.66435,-2.15264 1.13434,-1.26339 1.41474,-2.35212 1.68699,-2.34491 0.24951,0.007 0.59588,1.38105 -0.6637,3.15581 -0.65948,0.96146 -1.60994,1.88611 -2.85149,2.66697 -0.0249,0.0158 -0.0498,0.0316 -0.0749,0.0472 -1.22434,0.76548 -2.45612,1.21926 -3.59414,1.41208 -2.17838,0.39831 -3.3625,-0.44028 -3.26915,-0.68789 z m 4.58296,1.88988 c 0.0175,-0.22769 0.77261,-0.31142 1.86668,-0.62868 1.17254,-0.34001 2.49596,-0.88217 4.06166,-1.87611 0.20486,-0.13005 0.40457,-0.26202 0.59849,-0.39459 0,0 0,0 0,0 1.00945,-0.71766 1.71259,-1.34334 2.22711,-2.07125 0.75687,-1.11389 0.61625,-2.09319 0.849,-2.19054 0.0372,-0.0155 1.22955,0.82542 0.22578,2.80967 -0.47711,0.99046 -1.28416,1.91437 -2.39398,2.71736 0,0 0,0 0,0 -0.20879,0.15641 -0.42706,0.30915 -0.65448,0.45657 -1.71136,1.10938 -3.4028,1.576 -4.7414,1.63719 -1.30757,0.0598 -2.05401,-0.26214 -2.03886,-0.45962 z m 3.96876,1.51191 c 0.0519,-0.22431 0.78766,-0.19345 1.86544,-0.37538 1.11396,-0.18803 2.4997,-0.59709 3.92729,-1.51764 0.20122,-0.12975 0.39456,-0.26434 0.57971,-0.40268 0.87631,-0.67405 1.48941,-1.33124 1.89758,-2.03556 0.66212,-1.16657 0.48241,-2.16411 0.71871,-2.26294 0.0778,-0.0325 1.18466,0.80139 0.42031,2.78598 -0.36235,0.97193 -1.05771,1.93383 -2.07978,2.73976 -0.2145,0.17325 -0.44147,0.33876 -0.68037,0.49464 -1.69374,1.10517 -3.45245,1.39814 -4.74283,1.29974 -1.28396,-0.0979 -1.94949,-0.53814 -1.90606,-0.72592 z m 4.20498,1.55915 c 0.0974,-0.42139 2.5217,-0.11577 4.83227,-1.34808 0.22692,-0.12102 0.4423,-0.25074 0.64656,-0.38823 0,0 0,0 0,0 1.93816,-1.29276 2.96731,-2.94374 3.32091,-2.77902 0.27943,0.13017 -0.0369,2.2887 -2.43131,4.04504 0,0 0,0 0,0 -0.25109,0.18247 -0.51965,0.35048 -0.80438,0.50101 -3.24479,1.71543 -5.61785,0.20193 -5.56405,-0.0307 z m 5.13331,1.45695 c 0.0507,-0.42953 1.74724,-0.42339 3.0785,-1.23125 0.0912,-0.0553 0.17785,-0.11376 0.26058,-0.17564 0,0 0,0 0,0 1.20062,-0.78403 1.9546,-2.08217 2.31984,-1.91203 0.18977,0.0884 0.37798,1.74481 -1.39405,3.16437 0,0 0,0 0,0 -0.12856,0.0943 -0.26303,0.1817 -0.4029,0.26163 -2.28524,1.30589 -3.88392,0.0787 -3.86197,-0.10708 z"
       inkscape:original-d="m 247.38179,324.85253 c 20.75948,8.98471 48.29464,8.84717 71.19263,4.83683 m -71.59353,-2.43141 c 22.28787,12.34637 58.74906,13.23666 71.19263,4.83683 m -71.09814,-0.77358 c 22.28787,12.34637 56.85918,13.89812 66.65692,8.90007 m -62.91515,-4.49012 c 22.28787,12.34637 48.90791,13.16313 56.50068,11.43913 m -51.22211,-6.42783 c 22.28787,12.34637 37.68259,12.56177 45.27536,10.83777 m -43.93901,-6.89554 c 22.28787,12.34637 32.47083,11.8936 37.85863,11.23867 m -40.59814,-6.42782 c 17.47702,9.27277 30.33267,10.22316 35.72047,9.56823 m -40.33087,-4.82419 c 16.20749,8.47096 31.33494,7.95137 36.72274,7.29644 m -39.74655,-2.28826 c 14.74283,7.57327 31.61842,6.62845 36.72274,4.41437 m -37.99842,4.04285 c 11.86077,3.69902 29.01984,1.0533 32.04529,-0.0741 m -31.28933,5.5075 c 9.26218,2.4706 26.42125,-0.97832 28.6435,-2.7672 m -26.98986,6.64146 c 5.57691,2.23436 23.30295,-1.07281 24.24953,-3.99562 m -19.33583,9.61801 c 6.52185,0.15549 16.16864,-3.81313 17.11522,-6.73594 m -13.05198,9.52351 c 4.63197,0.58071 11.58568,-4.00212 13.14647,-6.78319 m -9.60294,8.86206 c 5.29343,0.53346 8.84535,-2.82094 11.49282,-5.97999 m -7.42958,8.34235 c 3.54529,1.33666 10.35725,-2.96268 10.45339,-6.5942 m -5.87043,8.48408 c 4.49023,0.34447 10.92421,-4.00211 9.60294,-7.16116 m -5.63418,8.67307 c 4.9627,1.14767 10.31,-3.43515 8.98873,-6.5942 m -4.78375,8.15335 c 4.9627,1.14767 7.9004,-2.5847 8.79974,-4.51533 m -3.66643,5.97228 c 3.49271,0.41268 4.75958,-1.38829 5.65892,-3.31892"
       inkscape:path-effect="#path-effect1484"
       style="fill:url(#linearGradient1506);fill-opacity:1;stroke:none;stroke-width:0.26458332px;stroke-linecap:butt;stroke-linejoin:miter;stroke-opacity:1"
       transform="translate(-178.07389,-235.42702)"
       id="path1482"
       inkscape:connector-curvature="0" />
    <path
       sodipodi:nodetypes="csc"
       inkscape:original-d="m 634.76512,512.55286 c -54.84835,-18.15056 -32.42485,-36.95957 -25.58582,-54.41347 1.73238,-4.4212 -12.7589,-9.56372 -8.35742,-18.68474"
       inkscape:path-effect="#path-effect1488"
       inkscape:connector-curvature="0"
       id="path1486"
       d="m 634.76512,512.55286 c -0.071,0.2144 -3.28602,-0.42599 -8.62731,-2.21541 -4.96788,-1.66432 -13.20212,-4.80941 -20.26029,-10.54317 -2.32767,-1.88911 -4.62662,-4.25915 -6.25862,-7.21222 -1.21924,-2.22443 -1.98009,-4.77471 -2.10036,-7.44014 -0.0216,-0.61452 -0.0134,-1.22679 0.0222,-1.83673 0.26663,-4.57403 2.07014,-8.83099 3.88902,-12.41614 2.43248,-4.88021 5.06004,-9.1061 6.72464,-13.15127 0,0 0,0 0,0 0.12671,-0.21171 0.0875,-0.57289 -0.0154,-0.91575 -0.16075,-0.50168 -0.53613,-1.00733 -0.93771,-1.5265 -1.20002,-1.50757 -2.62525,-2.79065 -3.83457,-4.12905 -1.66611,-1.81984 -2.82355,-3.4966 -3.45645,-5.33136 -1.60016,-4.78957 1.35108,-6.16843 0.91168,-6.38047 0.21208,0.10234 -1.22776,2.57471 0.29685,5.91091 0.68913,1.56486 1.82124,2.90446 3.51398,4.58686 1.21594,1.19074 2.70846,2.40306 4.13676,4.02675 0.49291,0.54646 1.00785,1.22391 1.36569,2.08133 0.30291,0.72078 0.37181,1.59606 0.0691,2.4805 0,0 0,0 0,0 -1.84645,4.94479 -3.89755,8.12357 -6.47632,13.47482 -1.66989,3.53056 -3.36005,7.4915 -3.56629,11.43487 -0.0276,0.52787 -0.0289,1.05353 -0.001,1.57714 0.0914,2.23566 0.72884,4.41071 1.74689,6.31387 1.36139,2.56936 3.42456,4.73821 5.54814,6.5599 6.47243,5.54466 14.50272,9.02358 19.21871,11.01705 5.14006,2.17273 8.19464,3.3211 8.09103,3.63421 z"
       style="fill:url(#linearGradient1508);fill-opacity:1;stroke:none;stroke-width:0.26458332px;stroke-linecap:butt;stroke-linejoin:miter;stroke-opacity:1"
       transform="translate(-531.32386,-350.12223)" />
    <path
       transform="matrix(-1,0,0,1,728.07844,-343.84139)"
       style="fill:url(#linearGradient1510);fill-opacity:1;stroke:none;stroke-width:0.26458332px;stroke-linecap:butt;stroke-linejoin:miter;stroke-opacity:1"
       d="m 614.71991,500.45892 c -0.16376,-0.36629 6.18787,-2.41946 13.39518,-8.77622 0,0 0,0 0,0 1.06946,-0.94916 2.16267,-2.04099 2.88814,-3.30397 0.47977,-0.84382 0.83272,-1.79151 0.81658,-2.70633 0.0132,-0.81702 -0.26453,-1.6799 -0.71048,-2.50404 -0.52027,-0.95488 -1.28301,-1.82577 -2.16703,-2.69489 -2.25114,-2.19922 -4.92818,-3.92653 -7.94699,-5.851 -1.33759,-0.84833 -2.68577,-1.68074 -4.07938,-2.53808 -2.27016,-1.39659 -4.41372,-2.70872 -6.57172,-4.10418 -4.05629,-2.62077 -7.61642,-5.16838 -10.82965,-7.99971 -3.77277,-3.3176 -6.52964,-6.61633 -8.45536,-9.98938 0,0 0,0 0,0 -4.19548,-7.36047 -2.92848,-12.40753 -2.93262,-12.40737 0.35043,-0.0139 0.34718,5.11971 4.48133,11.46472 0,0 0,10e-6 0,10e-6 2.00107,3.0775 4.71748,6.03208 8.44238,9.14015 3.18043,2.64814 6.66389,5.03481 10.70059,7.59379 2.1619,1.36928 4.25052,2.63276 6.55149,4.0484 1.39578,0.85873 2.75869,1.70599 4.10892,2.57333 3.02793,1.93524 5.84517,3.83072 8.29449,6.28999 0.98046,0.97874 1.86962,2.07068 2.53645,3.33152 0.5991,1.12651 0.93601,2.39587 0.90625,3.69407 -0.0643,1.45131 -0.57317,2.75463 -1.25981,3.8143 -0.99239,1.54033 -2.278,2.73782 -3.4878,3.68997 0,0 -1e-5,0 -1e-5,0 -8.13141,6.43457 -14.83128,6.89866 -14.68095,7.23492 z"
       id="path1490"
       inkscape:connector-curvature="0"
       inkscape:path-effect="#path-effect1492"
       inkscape:original-d="m 614.71991,500.45892 c 52.67351,-23.54879 -25.1867,-27.34779 -26.59333,-62.87516"
       sodipodi:nodetypes="cc" />
    <text
       transform="scale(0.90140049,1.1093848)"
       id="text1496"
       y="240.23222"
       x="34.682644"
       style="font-style:normal;font-weight:normal;font-size:11.74098873px;line-height:1.25;font-family:sans-serif;letter-spacing:0px;word-spacing:0px;fill:#4043ba;fill-opacity:1;stroke:none;stroke-width:0.29352471"
       xml:space="preserve"><tspan
         style="font-style:normal;font-variant:normal;font-weight:bold;font-stretch:normal;font-family:sans-serif;-inkscape-font-specification:'sans-serif Bold';fill:#4043ba;fill-opacity:1;stroke-width:0.29352471"
         y="240.23222"
         x="34.682644"
         id="tspan1494"
         sodipodi:role="line">WADever the Weather</tspan></text>
    <text
       xml:space="preserve"
       style="font-style:normal;font-weight:normal;font-size:11.74098873px;line-height:1.25;font-family:sans-serif;letter-spacing:0px;word-spacing:0px;fill:#4043ba;fill-opacity:1;stroke:none;stroke-width:0.29352471"
       x="59.926636"
       y="210.1176"
       id="text828"
       transform="scale(0.90140049,1.1093848)"><tspan
         sodipodi:role="line"
         id="tspan826"
         x="59.926636"
         y="210.1176"
         style="font-style:normal;font-variant:normal;font-weight:bold;font-stretch:normal;font-family:sans-serif;-inkscape-font-specification:'sans-serif Bold';fill:#4043ba;fill-opacity:1;stroke-width:0.29352471">Weather Clever</tspan></text>
    <text
       transform="scale(0.90140049,1.1093848)"
       id="text832"
       y="269.42966"
       x="-185.82767"
       style="font-style:normal;font-weight:normal;font-size:11.74098873px;line-height:1.25;font-family:sans-serif;letter-spacing:0px;word-spacing:0px;fill:#4043ba;fill-opacity:1;stroke:none;stroke-width:0.29352471"
       xml:space="preserve"><tspan
         style="font-style:normal;font-variant:normal;font-weight:bold;font-stretch:normal;font-family:sans-serif;-inkscape-font-specification:'sans-serif Bold';fill:#4043ba;fill-opacity:1;stroke-width:0.29352471"
         y="269.42966"
         x="-185.82767"
         id="tspan830"
         sodipodi:role="line">GeoWeather</tspan></text>
    <text
       transform="scale(0.90140049,1.1093848)"
       id="text836"
       y="247.70064"
       x="206.993"
       style="font-style:normal;font-weight:normal;font-size:11.74098873px;line-height:1.25;font-family:sans-serif;letter-spacing:0px;word-spacing:0px;fill:#4043ba;fill-opacity:1;stroke:none;stroke-width:0.29352471"
       xml:space="preserve"><tspan
         style="font-style:normal;font-variant:normal;font-weight:bold;font-stretch:normal;font-family:sans-serif;-inkscape-font-specification:'sans-serif Bold';fill:#4043ba;fill-opacity:1;stroke-width:0.29352471"
         y="247.70064"
         x="206.993"
         id="tspan834"
         sodipodi:role="line">Storms Weather</tspan></text>
    <text
       xml:space="preserve"
       style="font-style:normal;font-weight:normal;font-size:11.74098873px;line-height:1.25;font-family:sans-serif;letter-spacing:0px;word-spacing:0px;fill:#4043ba;fill-opacity:1;stroke:none;stroke-width:0.29352471"
       x="379.12534"
       y="273.58786"
       id="text840"
       transform="scale(0.90140049,1.1093848)"><tspan
         sodipodi:role="line"
         id="tspan838"
         x="379.12534"
         y="273.58786"
         style="font-style:normal;font-variant:normal;font-weight:bold;font-stretch:normal;font-family:sans-serif;-inkscape-font-specification:'sans-serif Bold';fill:#4043ba;fill-opacity:1;stroke-width:0.29352471">Easy Storms</tspan></text>
    <text
       transform="scale(0.90140049,1.1093848)"
       id="text844"
       y="154.22488"
       x="225.0798"
       style="font-style:normal;font-weight:normal;font-size:11.74098873px;line-height:1.25;font-family:sans-serif;letter-spacing:0px;word-spacing:0px;fill:#4043ba;fill-opacity:1;stroke:none;stroke-width:0.29352471"
       xml:space="preserve"><tspan
         style="font-style:normal;font-variant:normal;font-weight:bold;font-stretch:normal;font-family:sans-serif;-inkscape-font-specification:'sans-serif Bold';fill:#4043ba;fill-opacity:1;stroke-width:0.29352471"
         y="154.22488"
         x="225.0798"
         id="tspan842"
         sodipodi:role="line">The Home Of Rain</tspan></text>
    <text
       xml:space="preserve"
       style="font-style:normal;font-weight:normal;font-size:11.74098873px;line-height:1.25;font-family:sans-serif;letter-spacing:0px;word-spacing:0px;fill:#4043ba;fill-opacity:1;stroke:none;stroke-width:0.29352471"
       x="205.48668"
       y="29.670862"
       id="text848"
       transform="scale(0.90140049,1.1093848)"><tspan
         sodipodi:role="line"
         id="tspan846"
         x="205.48668"
         y="29.670862"
         style="font-style:normal;font-variant:normal;font-weight:bold;font-stretch:normal;font-family:sans-serif;-inkscape-font-specification:'sans-serif Bold';fill:#4043ba;fill-opacity:1;stroke-width:0.29352471">The Reasonable Easy And Dynamic Sysytem Teaching One New Enviroments</tspan></text>
    <text
       transform="scale(0.90140049,1.1093848)"
       id="text852"
       y="243.41136"
       x="-149.96741"
       style="font-style:normal;font-weight:normal;font-size:11.74098873px;line-height:1.25;font-family:sans-serif;letter-spacing:0px;word-spacing:0px;fill:#4043ba;fill-opacity:1;stroke:none;stroke-width:0.29352471"
       xml:space="preserve"><tspan
         style="font-style:normal;font-variant:normal;font-weight:bold;font-stretch:normal;font-family:sans-serif;-inkscape-font-specification:'sans-serif Bold';fill:#4043ba;fill-opacity:1;stroke-width:0.29352471"
         y="243.41136"
         x="-149.96741"
         id="tspan850"
         sodipodi:role="line">The Home Of Rain</tspan></text>
    <text
       transform="scale(0.90140049,1.1093848)"
       id="text856"
       y="48.368671"
       x="-241.68799"
       style="font-style:normal;font-weight:normal;font-size:11.74098873px;line-height:1.25;font-family:sans-serif;letter-spacing:0px;word-spacing:0px;fill:#4043ba;fill-opacity:1;stroke:none;stroke-width:0.29352471"
       xml:space="preserve"><tspan
         style="font-style:normal;font-variant:normal;font-weight:bold;font-stretch:normal;font-family:sans-serif;-inkscape-font-specification:'sans-serif Bold';fill:#4043ba;fill-opacity:1;stroke-width:0.29352471"
         y="48.368671"
         x="-241.68799"
         id="tspan854"
         sodipodi:role="line">The Home Of The Weather</tspan></text>
    <text
       transform="scale(0.90140049,1.1093848)"
       id="text860"
       y="358.76334"
       x="-201.91084"
       style="font-style:normal;font-weight:normal;font-size:11.74098873px;line-height:1.25;font-family:sans-serif;letter-spacing:0px;word-spacing:0px;fill:#4043ba;fill-opacity:1;stroke:none;stroke-width:0.29352471"
       xml:space="preserve"><tspan
         style="font-style:normal;font-variant:normal;font-weight:bold;font-stretch:normal;font-family:sans-serif;-inkscape-font-specification:'sans-serif Bold';fill:#4043ba;fill-opacity:1;stroke-width:0.29352471"
         y="358.76334"
         x="-201.91084"
         id="tspan858"
         sodipodi:role="line">The Reasonable Easy And Dynamic Sysytem Teaching One New Enviroments</tspan></text>
    <text
       transform="scale(0.90140049,1.1093848)"
       id="text868"
       y="114.37867"
       x="-80.545906"
       style="font-style:normal;font-weight:normal;font-size:11.74098873px;line-height:1.25;font-family:sans-serif;letter-spacing:0px;word-spacing:0px;fill:#4043ba;fill-opacity:1;stroke:none;stroke-width:0.29352471"
       xml:space="preserve"><tspan
         style="font-style:normal;font-variant:normal;font-weight:bold;font-stretch:normal;font-family:sans-serif;-inkscape-font-specification:'sans-serif Bold';fill:#4043ba;fill-opacity:1;stroke-width:0.29352471"
         y="114.37867"
         x="-80.545906"
         id="tspan866"
         sodipodi:role="line">FHTSF</tspan></text>
    <text
       xml:space="preserve"
       style="font-style:normal;font-weight:normal;font-size:11.74098873px;line-height:1.25;font-family:sans-serif;letter-spacing:0px;word-spacing:0px;fill:#4043ba;fill-opacity:1;stroke:none;stroke-width:0.29352471"
       x="59.92664"
       y="170.25478"
       id="text872"
       transform="scale(0.90140049,1.1093848)"><tspan
         sodipodi:role="line"
         id="tspan870"
         x="59.92664"
         y="170.25478"
         style="font-style:normal;font-variant:normal;font-weight:bold;font-stretch:normal;font-family:sans-serif;-inkscape-font-specification:'sans-serif Bold';fill:#4043ba;fill-opacity:1;stroke-width:0.29352471">Weather STUFF</tspan></text>
    <text
       transform="scale(0.90140049,1.1093848)"
       id="text876"
       y="170.25478"
       x="-172.37721"
       style="font-style:normal;font-weight:normal;font-size:11.74098873px;line-height:1.25;font-family:sans-serif;letter-spacing:0px;word-spacing:0px;fill:#4043ba;fill-opacity:1;stroke:none;stroke-width:0.29352471"
       xml:space="preserve"><tspan
         style="font-style:normal;font-variant:normal;font-weight:bold;font-stretch:normal;font-family:sans-serif;-inkscape-font-specification:'sans-serif Bold';fill:#4043ba;fill-opacity:1;stroke-width:0.29352471"
         y="170.25478"
         x="-172.37721"
         id="tspan874"
         sodipodi:role="line">Weather STFF</tspan></text>
  </g>
</svg>
